<svg width="55" height="66" viewBox="0 0 55 66" fill="none" xmlns="http://www.w3.org/2000/svg">
<path d="M27.4648 65.8816C27.1783 65.8816 26.9058 65.8251 26.6403 65.7193C10.4521 59.0451 0 43.3331 0 25.688V12.8052C0 11.9092 0.53099 11.112 1.34844 10.7663L26.6264 0.169325C26.8919 0.0564417 27.1713 0 27.4578 0C27.7442 0 28.0307 0.0564417 28.2962 0.169325L53.5741 10.7663C54.3916 11.112 54.9226 11.9092 54.9226 12.8052V25.688C54.9226 43.3331 44.4704 59.0521 28.2892 65.7193C28.0237 65.8251 27.7442 65.8816 27.4648 65.8816ZM4.3667 14.2727V25.681C4.3667 41.0613 13.3726 55.0095 27.3041 61.211L27.4648 61.2816L27.6255 61.211C41.557 55.0095 50.5629 41.0684 50.5629 25.681V14.2727L27.4648 4.59294L4.3667 14.2727ZM24.6072 40.3558C24.0273 40.3558 23.4754 40.123 23.0631 39.7067L15.8598 32.4328C15.4476 32.0166 15.2171 31.4592 15.2171 30.8736C15.2171 30.288 15.4476 29.7307 15.8598 29.3144C16.2721 28.8982 16.824 28.6653 17.4039 28.6653C17.9838 28.6653 18.5358 28.8982 18.948 29.3144L24.6142 35.0362L35.9816 23.5574C36.3938 23.1411 36.9458 22.9083 37.5256 22.9083C38.1055 22.9083 38.6575 23.1411 39.0697 23.5574C39.4819 23.9736 39.7125 24.531 39.7125 25.1166C39.7125 25.7021 39.4819 26.2595 39.0697 26.6758L26.1513 39.7067C25.7391 40.123 25.1941 40.3558 24.6072 40.3558Z" fill="#B3C41D"/>
</svg>
