<svg width="66" height="66" viewBox="0 0 66 66" fill="none" xmlns="http://www.w3.org/2000/svg">
<path d="M63.484 28.652C63.4772 28.652 63.4772 28.652 63.484 28.652L36.8612 1.77515C35.7282 0.63101 34.2244 0 32.6175 0C31.0107 0 29.5069 0.63101 28.367 1.77515L1.77165 28.6381C1.76478 28.6451 1.75105 28.6589 1.74418 28.6659C-0.583678 31.0304 -0.583678 34.8719 1.75792 37.2296C2.82228 38.3113 4.23685 38.9354 5.74069 38.9978C5.80249 39.0047 5.86429 39.0047 5.92609 39.0047H6.98359V58.781C6.98359 62.6918 10.1355 65.8816 14.0152 65.8816H24.4254C25.4829 65.8816 26.3344 65.0148 26.3344 63.9539V48.4421C26.3344 46.6531 27.7764 45.2039 29.5412 45.2039H35.6801C37.4518 45.2039 38.887 46.6531 38.887 48.4421V63.9469C38.887 65.0148 39.7453 65.8746 40.796 65.8746H51.2061C55.0859 65.8746 58.2378 62.6918 58.2378 58.774V39.0047H59.2197C60.8266 39.0047 62.3304 38.3737 63.4703 37.2296C65.8188 34.865 65.8188 31.0166 63.484 28.652ZM60.7785 34.4975C60.3665 34.9136 59.8171 35.1424 59.2334 35.1424H56.3356C55.2781 35.1424 54.4267 36.0092 54.4267 37.0701V58.774C54.4267 60.5561 52.9915 62.0123 51.2198 62.0123H42.7187V48.4421C42.7187 44.5313 39.5668 41.3415 35.687 41.3415H29.5481C25.6683 41.3415 22.5164 44.5243 22.5164 48.4421V62.0192H14.0152C12.2505 62.0192 10.8084 60.57 10.8084 58.781V37.077C10.8084 36.0092 9.95007 35.1493 8.89944 35.1493H6.0497C6.02223 35.1493 5.9879 35.1424 5.96043 35.1424C5.39048 35.1354 4.85487 34.9066 4.45659 34.4975C3.6051 33.6377 3.6051 32.237 4.45659 31.3771L31.0725 4.50721C31.4845 4.09116 32.0339 3.86233 32.6175 3.86233C33.2012 3.86233 33.7506 4.09116 34.1626 4.50721L60.7716 31.3771C60.7785 31.3841 60.7785 31.3841 60.7854 31.391C61.6231 32.2439 61.6231 33.6446 60.7785 34.4975Z" fill="#B3C41D"/>
</svg>
