<svg width="69" height="69" viewBox="0 0 69 69" fill="none" xmlns="http://www.w3.org/2000/svg">
<path d="M32.6993 61.0753C31.2829 59.9338 30.0299 58.6067 28.9676 57.1214C28.3752 56.2963 27.2312 56.1106 26.4141 56.702C25.5969 57.3002 25.4131 58.4554 25.9987 59.2806C27.2516 61.034 28.7361 62.6156 30.4113 63.9633C30.7313 64.2246 31.1399 64.369 31.5484 64.369C32.1068 64.369 32.6312 64.1146 32.9784 63.6745C33.6185 62.8769 33.4892 61.7079 32.6993 61.0753Z" fill="#B3C41D"/>
<path d="M54.9052 28.1652C56.4714 29.0798 57.9083 30.2075 59.1748 31.5208C59.5221 31.8784 59.9852 32.0778 60.4823 32.0778C60.9657 32.0778 61.4152 31.8922 61.7556 31.5552C62.4775 30.847 62.4911 29.6711 61.7897 28.9422C60.2916 27.3882 58.5892 26.0542 56.737 24.9746C55.8654 24.4658 54.7418 24.7683 54.2379 25.6485C53.9928 26.0748 53.9247 26.5699 54.0541 27.0513C54.1766 27.5257 54.4762 27.9177 54.9052 28.1652Z" fill="#B3C41D"/>
<path d="M62.3889 35.9151C63.2537 37.5241 63.9006 39.2363 64.3024 41.0173C64.493 41.8631 65.2285 42.4544 66.0865 42.4544C66.2227 42.4544 66.3589 42.4407 66.4951 42.4063C67.4756 42.1794 68.0953 41.1892 67.8706 40.199C67.3939 38.088 66.6312 36.0526 65.603 34.1479C65.3715 33.7147 64.9833 33.3984 64.5135 33.2608C64.0436 33.1233 63.5533 33.1783 63.1243 33.4121C62.6953 33.6459 62.3821 34.0379 62.2459 34.5123C62.1097 34.9868 62.1506 35.4819 62.3889 35.9151Z" fill="#B3C41D"/>
<path d="M42.5663 65.2765C40.7686 65.0496 39.0118 64.5751 37.3434 63.8668C36.4173 63.468 35.3414 63.915 34.9465 64.8501C34.5515 65.7853 34.9941 66.8718 35.9202 67.2706C37.895 68.1095 39.9787 68.6734 42.1101 68.9415C42.185 68.9484 42.2599 68.9553 42.3348 68.9553C43.2541 68.9553 44.0372 68.2608 44.1461 67.3394C44.2074 66.8511 44.0712 66.3629 43.7716 65.9778C43.472 65.5928 43.0498 65.3384 42.5663 65.2765Z" fill="#B3C41D"/>
<path d="M26.4414 52.2942C25.8558 50.6714 25.4813 48.9661 25.3315 47.2333C36.54 46.3187 45.5081 37.462 46.7134 26.2262L46.7202 26.2331L46.7406 26.0199C46.7543 25.8755 46.7679 25.7311 46.7815 25.5798C47.837 25.6761 48.8856 25.8549 49.9071 26.1162C50.3837 26.2399 50.874 26.1643 51.2894 25.9099C51.7116 25.6555 52.0044 25.2566 52.127 24.7753C52.2496 24.3008 52.1746 23.7989 51.9295 23.3794C51.6775 22.9531 51.2826 22.6574 50.8059 22.5336C49.4985 22.1967 48.157 21.9766 46.7951 21.8804C45.8758 9.5718 35.7024 0 23.4248 0C10.5071 0 0 10.6101 0 23.6545C0 36.0662 9.47206 46.3256 21.6611 47.2401C21.8177 49.3993 22.274 51.5241 23.0026 53.5526C23.2682 54.2815 23.9559 54.7697 24.7186 54.7697C24.9297 54.7697 25.1408 54.7353 25.3451 54.6597C26.2984 54.309 26.7819 53.25 26.4414 52.2942ZM21.6747 43.5407C11.5285 42.6399 3.65672 34.0033 3.65672 23.6545C3.65672 12.6455 12.5227 3.69257 23.4248 3.69257C33.6731 3.69257 42.2259 11.6416 43.118 21.8872C31.6916 22.8224 22.6008 32.0023 21.6747 43.5407ZM25.3451 43.5269C26.2508 34.072 33.7412 26.515 43.1043 25.5936C42.1919 35.0485 34.7082 42.6055 25.3451 43.5269Z" fill="#B3C41D"/>
<path d="M67.9455 45.3082C67.6186 44.9437 67.1692 44.7306 66.6789 44.7031C66.1818 44.6755 65.7256 44.8475 65.3647 45.1775C65.0037 45.5076 64.7927 45.9614 64.7654 46.4565C64.6769 48.2856 64.3432 50.0941 63.7644 51.82C63.4444 52.7827 63.9619 53.8348 64.9152 54.158C65.1059 54.2198 65.3034 54.2542 65.494 54.2542C66.2771 54.2542 66.9785 53.7454 67.2237 52.9959C67.9046 50.9467 68.2996 48.8082 68.4085 46.6353C68.4426 46.1471 68.2791 45.6726 67.9455 45.3082Z" fill="#B3C41D"/>
<path d="M63.9006 56.2201C63.0698 55.6494 61.9326 55.8626 61.3606 56.7015C60.3392 58.2074 59.1203 59.5758 57.7311 60.7516C57.3566 61.0679 57.1251 61.5149 57.0842 62.0031C57.0434 62.4913 57.1932 62.9726 57.5064 63.3508C57.8537 63.7703 58.3644 64.011 58.9092 64.011C59.3382 64.011 59.7536 63.8597 60.0872 63.5778C61.7283 62.1819 63.172 60.5728 64.3841 58.785C64.9492 57.9461 64.7381 56.7977 63.9006 56.2201Z" fill="#B3C41D"/>
<path d="M53.155 63.668C51.5071 64.4175 49.7639 64.9401 47.9729 65.2083C47.4895 65.2839 47.0673 65.5383 46.7745 65.9371C46.4817 66.336 46.3659 66.8173 46.434 67.3055C46.5702 68.1994 47.3465 68.8802 48.2385 68.8802C48.327 68.8802 48.4156 68.8733 48.5109 68.8596C50.6355 68.5364 52.7056 67.9244 54.6599 67.0305C55.1025 66.8242 55.443 66.4598 55.6201 65.999C55.7903 65.5383 55.7767 65.0364 55.5724 64.5894C55.1638 63.6611 54.0811 63.2485 53.155 63.668Z" fill="#B3C41D"/>
<path d="M13.8847 9.42786C13.4012 9.37285 12.9245 9.51038 12.5432 9.81981C8.33489 13.1892 5.92432 18.2364 5.92432 23.6549C5.92432 24.6726 6.74146 25.4978 7.74927 25.4978C8.75708 25.4978 9.57423 24.6726 9.57423 23.6549C9.57423 19.371 11.4809 15.3759 14.8108 12.7079C15.1921 12.3984 15.4372 11.9652 15.4917 11.4701C15.5462 10.9819 15.41 10.5006 15.1036 10.1086C14.7971 9.71667 14.3749 9.48287 13.8847 9.42786Z" fill="#B3C41D"/>
<path d="M23.4246 5.98242C21.7767 5.98242 20.1425 6.21622 18.5694 6.67005C17.6025 6.95198 17.0373 7.97655 17.3165 8.95298C17.5412 9.73688 18.263 10.287 19.0734 10.287C19.2436 10.287 19.4138 10.2595 19.5841 10.2113C20.8234 9.8469 22.1172 9.66812 23.4246 9.66812C24.4325 9.66812 25.2496 8.84296 25.2496 7.82527C25.2496 6.80758 24.4325 5.98242 23.4246 5.98242Z" fill="#B3C41D"/>
</svg>
