<svg width="98" height="98" viewBox="0 0 98 98" fill="none" xmlns="http://www.w3.org/2000/svg">
<path d="M21.6007 58.9004L18.208 71.5658L5.80785 71.8281C2.10201 64.9546 0 57.0904 0 48.7334C0 40.6522 1.96533 33.0315 5.44901 26.3213H5.45168L16.4913 28.3452L21.3274 39.3187C20.3152 42.2695 19.7635 45.4372 19.7635 48.7334C19.7639 52.3107 20.4119 55.7382 21.6007 58.9004Z" fill="#FBBB00"/>
<path d="M96.6155 39.6299C97.1752 42.5779 97.467 45.6224 97.467 48.7339C97.467 52.2229 97.1002 55.6263 96.4014 58.9091C94.029 70.0803 87.8302 79.835 79.243 86.738L79.2403 86.7354L65.3353 86.0259L63.3673 73.7406C69.0653 70.399 73.5183 65.1695 75.864 58.9091H49.8049V39.6299H76.2442H96.6155Z" fill="#518EF8"/>
<path d="M79.2401 86.7346L79.2427 86.7373C70.8912 93.4501 60.2822 97.4667 48.7335 97.4667C30.1746 97.4667 14.0391 87.0935 5.80786 71.8281L21.6007 58.9004C25.7162 69.8841 36.3118 77.7029 48.7335 77.7029C54.0727 77.7029 59.0747 76.2596 63.3668 73.7399L79.2401 86.7346Z" fill="#28B446"/>
<path d="M79.8399 11.2194L64.0523 24.1444C59.6101 21.3677 54.3591 19.7637 48.7334 19.7637C36.0306 19.7637 25.2369 27.9412 21.3275 39.3188L5.45164 26.3214H5.44897C13.5597 10.6839 29.8987 0 48.7334 0C60.558 0 71.3998 4.21202 79.8399 11.2194Z" fill="#F14336"/>
</svg>
