<svg width="15" height="19" viewBox="0 0 15 19" fill="none" xmlns="http://www.w3.org/2000/svg">
<path d="M7.50251 0C3.36519 0 0 3.21803 0 7.17666C0 12.8005 6.79577 18.6058 7.08501 18.8495C7.20322 18.9498 7.35161 19 7.5 19C7.64839 19 7.79678 18.9498 7.91499 18.8495C8.20422 18.6058 15 12.7981 15 7.17427C15.0025 3.21803 11.6373 0 7.50251 0ZM7.50251 11.0851C5.20372 11.0851 3.33501 9.31007 3.33501 7.12649C3.33501 4.94291 5.20372 3.16786 7.50251 3.16786C9.80131 3.16786 11.67 4.94291 11.67 7.12649C11.67 9.31007 9.79879 11.0851 7.50251 11.0851Z" fill="#13A6BA"/>
</svg>
