<svg width="164" height="34" viewBox="0 0 164 34" fill="none" xmlns="http://www.w3.org/2000/svg">
<path d="M22.5095 33.5708C18.783 33.5708 15.0189 33.5708 11.2924 33.5708C7.5659 33.5708 3.76413 33.5708 0 33.5708V0H10.7278V8.94156C12.6851 8.94156 14.6801 8.94156 16.6374 8.94156C18.5948 8.94156 20.5898 8.94156 22.5471 8.94156C24.1657 8.94156 25.1444 9.46049 25.1444 9.46049C25.5208 9.62016 25.8972 9.81975 26.1983 10.0593C26.4995 10.2988 26.8382 10.5782 27.1017 10.8975C27.6287 11.5362 28.0428 12.3346 28.3439 13.2527C28.4192 13.6918 28.5321 14.1309 28.6074 14.6498C28.6827 15.1687 28.7203 15.6876 28.7203 16.2465V26.4255C28.7203 27.0243 28.6827 27.5831 28.6074 28.0621C28.5321 28.5411 28.4192 29.0201 28.2686 29.4193C28.0804 29.9382 27.8922 30.4173 27.6287 30.8564C27.3652 31.2954 27.1017 31.6148 26.7629 31.8942C26.4995 32.2136 26.1607 32.4531 25.8219 32.6926C25.4831 32.9321 25.1444 33.0518 24.8056 33.1716C24.8056 33.1716 23.6387 33.5708 22.5095 33.5708ZM16.6751 13.7716H12.0076C11.8194 13.7716 11.6688 13.8115 11.5182 13.9313C11.3677 14.051 11.2171 14.1708 11.1042 14.3304C10.916 14.4901 10.803 14.6498 10.7278 14.8494C10.6525 15.049 10.6148 15.2485 10.6148 15.4481V27.2238C10.6148 27.4234 10.6525 27.5831 10.7654 27.7428C10.8783 27.9024 10.9536 28.0621 11.0665 28.1819C11.2171 28.3415 11.3677 28.4613 11.5182 28.5411C11.6688 28.621 11.857 28.7407 12.0452 28.7407H16.7127C16.8633 28.7407 17.0139 28.7008 17.1644 28.581C17.315 28.4613 17.4656 28.3815 17.5785 28.2218C17.6914 28.0621 17.8043 27.9024 17.8796 27.7428C17.9549 27.5831 17.9925 27.3835 17.9925 27.2238V15.4082C17.9925 15.2485 17.9549 15.0889 17.8796 14.8893C17.8043 14.6897 17.729 14.4901 17.5785 14.3704C17.4279 14.2506 17.315 14.0909 17.1644 13.9712C17.0139 13.8514 16.8633 13.7716 16.6751 13.7716Z" fill="#021112"/>
<path d="M32.0706 8.94141H41.8196V10.7377C41.9326 10.4982 42.0831 10.2587 42.2337 10.0192C42.3843 9.77968 42.5725 9.62001 42.723 9.46034C42.9112 9.30066 43.1371 9.18091 43.3253 9.10108C43.5135 9.02124 43.7393 8.94141 44.0028 8.94141H54.3542C54.8435 8.94141 55.2952 9.02124 55.6716 9.22083C56.048 9.42042 56.3492 9.65992 56.575 9.93935C56.7632 10.1389 56.9514 10.3784 57.0644 10.6179C57.1773 10.8575 57.2902 11.057 57.3655 11.2566C57.4408 11.4562 57.4784 11.576 57.5161 11.6558C57.5537 11.7356 57.5161 11.7356 57.4784 11.6159C57.5537 11.2965 57.629 10.9772 57.7043 10.6978C57.7795 10.4184 57.9301 10.1389 58.0807 9.89943C58.2312 9.58009 58.4194 9.34058 58.6453 9.18091C58.8711 9.02124 59.1723 8.94141 59.4734 8.94141H67.9803C68.5826 8.94141 69.1472 9.02124 69.6365 9.14099C70.1259 9.26075 70.5399 9.46034 70.954 9.73976C71.368 10.0192 71.6692 10.2986 71.9703 10.6179C72.2714 10.9373 72.4973 11.3365 72.7231 11.7356C72.9113 12.0949 73.0619 12.4542 73.1748 12.8533C73.2877 13.2525 73.4007 13.6517 73.476 14.0509C73.5512 14.5698 73.6265 15.0887 73.6642 15.6077C73.7018 16.1266 73.7394 16.6056 73.7394 17.0846V33.5307H63.9904V15.1286C63.9904 14.9291 63.9527 14.7295 63.8774 14.5698C63.8021 14.4101 63.7269 14.2904 63.6516 14.1307C63.5387 14.0509 63.4257 13.971 63.2752 13.8912C63.1246 13.8114 63.0117 13.8114 62.8611 13.8114H58.7959C58.6453 13.8114 58.5324 13.8513 58.3818 13.9311C58.2312 14.011 58.156 14.0908 58.0807 14.1706C58.0054 14.2904 57.9301 14.45 57.8548 14.6097C57.7795 14.7694 57.7795 14.8891 57.7795 15.0488V33.5307H47.9928V15.2085C47.9928 15.0488 47.9552 14.8891 47.9175 14.6896C47.8799 14.49 47.8046 14.3303 47.7293 14.2105C47.6164 14.0509 47.4658 13.9311 47.3153 13.8513C47.1647 13.7714 46.9389 13.6916 46.713 13.6916H42.836C42.6854 13.6916 42.5348 13.7315 42.4219 13.8513C42.309 13.971 42.1961 14.0908 42.0831 14.2505C41.9702 14.4101 41.9326 14.5698 41.8573 14.7295C41.782 14.8891 41.782 15.0488 41.782 15.2085V33.5307H32.0706V8.94141Z" fill="#021112"/>
<path d="M105.809 17.4026V33.4894H96.3615L95.684 30.8549C95.6463 31.0545 95.6087 31.2141 95.5334 31.3339C95.4581 31.4536 95.3828 31.6133 95.3452 31.733C95.2699 31.9326 95.1946 32.0923 95.0441 32.252C94.8935 32.4116 94.8182 32.5314 94.7053 32.6512C94.3665 32.9306 94.0277 33.1701 93.689 33.2898C93.3126 33.4096 92.8985 33.4894 92.4845 33.4894H82.6601C82.1331 33.4894 81.6438 33.4495 81.2297 33.3298C80.8157 33.21 80.4016 33.0903 80.0628 32.8907C79.6864 32.6911 79.3477 32.4516 79.0842 32.1721C78.8207 31.8927 78.5572 31.5335 78.369 31.1742C78.1431 30.775 77.9549 30.296 77.8044 29.7771C77.6538 29.2582 77.5785 28.7392 77.5032 28.2602C77.4279 27.7413 77.3903 27.1824 77.3903 26.6635C77.3903 26.1446 77.3527 25.6256 77.3527 25.1466C77.3527 24.7075 77.3527 24.2285 77.3527 23.7495C77.3527 23.2705 77.3903 22.7516 77.4279 22.2326C77.4656 21.7137 77.5785 21.2347 77.6538 20.7557C77.7291 20.2767 77.8796 19.8376 78.0678 19.4384C78.2561 18.9993 78.5195 18.6001 78.8583 18.2409C79.1971 17.8816 79.5359 17.6022 79.9876 17.3627C80.3263 17.1631 80.7404 17.0434 81.1921 16.9236C81.6438 16.8038 82.1331 16.7639 82.6601 16.7639H93.6137C93.8019 16.7639 94.0278 16.6841 94.216 16.5643C94.4042 16.4446 94.63 16.2849 94.7806 16.0454C94.8935 15.9257 95.0064 15.766 95.0817 15.5664C95.157 15.3668 95.1946 15.2071 95.1946 15.0475C95.1946 14.8479 95.157 14.6882 95.0441 14.4886C94.9311 14.289 94.8559 14.1294 94.7053 14.0096C94.5547 13.8499 94.4042 13.7302 94.216 13.6503C94.0278 13.5705 93.8772 13.4907 93.689 13.4907H79.1218V8.82031H99.4105C100.013 8.82031 100.54 8.86023 101.029 8.97998C101.518 9.09974 101.97 9.25941 102.384 9.45899C102.873 9.65858 103.25 9.97792 103.589 10.2973C103.927 10.6166 104.229 11.0158 104.454 11.415C104.68 11.7742 104.906 12.1734 105.057 12.6125C105.207 13.0516 105.358 13.4508 105.433 13.8899C105.584 14.4886 105.659 15.0874 105.734 15.6862C105.809 16.2849 105.809 16.8837 105.809 17.4026ZM95.157 21.6738H89.9625C89.7366 21.6738 89.5108 21.7536 89.2849 21.8734C89.0591 21.9931 88.8709 22.1528 88.6827 22.3524C88.5321 22.552 88.4192 22.7516 88.2686 22.9911C88.1181 23.2306 88.0804 23.3903 88.0804 23.6298V27.1425C88.0804 27.3022 88.1181 27.4619 88.1934 27.6215C88.2686 27.7812 88.3439 27.9409 88.4568 28.1005C88.6074 28.2602 88.7956 28.38 88.9838 28.5396C89.172 28.6993 89.3979 28.7392 89.5484 28.7392H93.8019C93.9525 28.7392 94.103 28.6993 94.2912 28.5796C94.4794 28.4598 94.63 28.34 94.7806 28.1804C94.8935 28.0606 95.0064 27.901 95.0817 27.7413C95.157 27.5816 95.1946 27.4219 95.1946 27.2623V21.6738H95.157Z" fill="#021112"/>
<path d="M120.453 33.5706H109.688V8.94141H120.453V11.1369C120.603 10.8974 120.792 10.6579 121.018 10.4184C121.093 10.2986 121.206 10.1789 121.356 10.0591C121.507 9.93935 121.62 9.85951 121.733 9.81959C121.921 9.69984 122.071 9.58009 122.26 9.46034C122.448 9.34058 122.598 9.26075 122.787 9.22083C122.975 9.14099 123.201 9.10108 123.389 9.06116C123.577 9.02124 123.765 8.98132 123.954 8.98132H130.353V15.8072H124.706C124.142 15.8072 123.615 15.8871 123.163 16.0068C122.674 16.1266 122.222 16.2863 121.883 16.5258C121.695 16.6056 121.507 16.7254 121.356 16.885C121.206 17.0447 121.093 17.2044 120.942 17.364C120.754 17.5636 120.641 17.7632 120.566 18.0027C120.491 18.2422 120.453 18.4817 120.453 18.7612V33.5706Z" fill="#021112"/>
<path d="M144.127 17.4843L153.349 8.98184H160.125L153.763 14.8897L163.663 33.611H150.903L145.859 22.0748L144.09 23.911V33.6909L133.4 33.651V0.120117H144.09V17.4843H144.127Z" fill="#021112"/>
</svg>
