<svg width="18" height="26" viewBox="0 0 18 26" fill="none" xmlns="http://www.w3.org/2000/svg">
<path d="M0.829853 25.0839C0.703571 25.0839 0.582443 25.0564 0.469047 25.0038C0.185557 24.8687 0 24.5836 0 24.2759V0.805445C0 0.362701 0.373691 0 0.829853 0H16.9501C17.4089 0 17.7826 0.362701 17.7826 0.805445V24.2759C17.7826 24.5836 17.597 24.8687 17.3109 25.0013C17.1975 25.0538 17.0764 25.0814 16.9501 25.0814C16.762 25.0814 16.579 25.0188 16.4321 24.9038L8.89128 19.0505L1.35044 24.9063C1.20354 25.0188 1.01799 25.0839 0.829853 25.0839ZM8.89128 17.212C9.07941 17.212 9.26239 17.2745 9.40929 17.3896L16.1203 22.6V1.61089H1.66228V22.5975L8.37327 17.3871C8.52017 17.2746 8.70314 17.212 8.89128 17.212Z" fill="#13A6BA"/>
</svg>
