<svg width="26" height="28" viewBox="0 0 26 28" fill="none" xmlns="http://www.w3.org/2000/svg">
<path d="M3.22999 11.1172H8.07573V22.2339H3.22999C3.01579 22.2339 2.81037 22.1438 2.65891 21.9834C2.50745 21.8231 2.42236 21.6056 2.42236 21.3788V11.9723C2.42236 11.7455 2.50745 11.528 2.65891 11.3676C2.81037 11.2073 3.01579 11.1172 3.22999 11.1172V11.1172Z" stroke="#CCCFD0" stroke-width="1.7" stroke-linecap="round" stroke-linejoin="round"/>
<path d="M8.07568 11.1167L12.1138 2.56543C12.538 2.56543 12.9581 2.6539 13.3501 2.8258C13.742 2.9977 14.0981 3.24965 14.3981 3.56728C14.6981 3.8849 14.936 4.26198 15.0984 4.67698C15.2607 5.09197 15.3443 5.53676 15.3443 5.98595V8.55135H21.5908C21.8198 8.55135 22.0463 8.60292 22.255 8.70264C22.4638 8.80236 22.6502 8.94795 22.8017 9.12975C22.9533 9.31156 23.0666 9.52541 23.1342 9.75712C23.2017 9.98883 23.222 10.2331 23.1936 10.4737L21.9822 20.7353C21.9333 21.1489 21.7435 21.5295 21.4484 21.8053C21.1532 22.0812 20.7731 22.2334 20.3794 22.2334H8.07568" stroke="#CCCFD0" stroke-width="1.7" stroke-linecap="round" stroke-linejoin="round"/>
</svg>
