<svg width="191" height="104" viewBox="0 0 191 104" fill="none" xmlns="http://www.w3.org/2000/svg">
<circle cx="4.27233" cy="4.27233" r="4.27233" fill="#FEECEB"/>
<circle cx="108.074" cy="4.27233" r="4.27233" fill="#FEECEB"/>
<circle cx="30.2228" cy="4.27233" r="4.27233" fill="#FEECEB"/>
<circle cx="134.025" cy="4.27233" r="4.27233" fill="#FEECEB"/>
<circle cx="56.1732" cy="4.27233" r="4.27233" fill="#FEECEB"/>
<circle cx="159.975" cy="4.27233" r="4.27233" fill="#FEECEB"/>
<circle cx="82.1236" cy="4.27233" r="4.27233" fill="#FEECEB"/>
<circle cx="185.925" cy="4.27233" r="4.27233" fill="#FEECEB"/>
<circle cx="4.27233" cy="35.8173" r="4.27233" fill="#FEECEB"/>
<circle cx="108.074" cy="35.8173" r="4.27233" fill="#FEECEB"/>
<circle cx="30.2228" cy="35.8173" r="4.27233" fill="#FEECEB"/>
<circle cx="134.025" cy="35.8173" r="4.27233" fill="#FEECEB"/>
<circle cx="56.1732" cy="35.8173" r="4.27233" fill="#FEECEB"/>
<circle cx="159.975" cy="35.8173" r="4.27233" fill="#FEECEB"/>
<circle cx="82.1236" cy="35.8173" r="4.27233" fill="#FEECEB"/>
<circle cx="185.925" cy="35.8173" r="4.27233" fill="#FEECEB"/>
<circle cx="4.27233" cy="67.3612" r="4.27233" fill="#FEECEB"/>
<circle cx="108.074" cy="67.3612" r="4.27233" fill="#FEECEB"/>
<circle cx="30.2228" cy="67.3612" r="4.27233" fill="#FEECEB"/>
<circle cx="134.025" cy="67.3612" r="4.27233" fill="#FEECEB"/>
<circle cx="56.1732" cy="67.3612" r="4.27233" fill="#FEECEB"/>
<circle cx="159.975" cy="67.3612" r="4.27233" fill="#FEECEB"/>
<circle cx="82.1236" cy="67.3612" r="4.27233" fill="#FEECEB"/>
<circle cx="185.925" cy="67.3612" r="4.27233" fill="#FEECEB"/>
<circle cx="4.27233" cy="98.9061" r="4.27233" fill="#FEECEB"/>
<circle cx="108.074" cy="98.9061" r="4.27233" fill="#FEECEB"/>
<circle cx="30.2228" cy="98.9061" r="4.27233" fill="#FEECEB"/>
<circle cx="134.025" cy="98.9061" r="4.27233" fill="#FEECEB"/>
<circle cx="56.1732" cy="98.9061" r="4.27233" fill="#FEECEB"/>
<circle cx="159.975" cy="98.9061" r="4.27233" fill="#FEECEB"/>
<circle cx="82.1236" cy="98.9061" r="4.27233" fill="#FEECEB"/>
<circle cx="185.925" cy="98.9061" r="4.27233" fill="#FEECEB"/>
</svg>
